<svg width="40" height="40" viewBox="0 0 40 40" fill="none" xmlns="http://www.w3.org/2000/svg">
<path d="M12.8572 28.5716C12.8572 28.5716 11.4286 28.5716 11.4286 27.143C11.4286 25.7144 12.8572 21.4287 20 21.4287C27.1429 21.4287 28.5714 25.7144 28.5714 27.143C28.5714 28.5716 27.1429 28.5716 27.1429 28.5716H12.8572ZM20 20.0001C21.1367 20.0001 22.2267 19.5486 23.0305 18.7449C23.8342 17.9412 24.2857 16.8511 24.2857 15.7144C24.2857 14.5778 23.8342 13.4877 23.0305 12.684C22.2267 11.8802 21.1367 11.4287 20 11.4287C18.8634 11.4287 17.7733 11.8802 16.9696 12.684C16.1658 13.4877 15.7143 14.5778 15.7143 15.7144C15.7143 16.8511 16.1658 17.9412 16.9696 18.7449C17.7733 19.5486 18.8634 20.0001 20 20.0001Z" fill="black"/>
<circle cx="20" cy="20" r="19" stroke="black" stroke-width="2"/>
</svg>
