<svg width="71" height="53" viewBox="0 0 71 53" fill="none" xmlns="http://www.w3.org/2000/svg">
<path d="M9.35346 0C7.04196 0 4.82513 0.790176 3.19066 2.1967C1.55618 3.60322 0.637939 5.51088 0.637939 7.5V45C0.637939 46.9891 1.55618 48.8968 3.19066 50.3033C4.82513 51.7098 7.04196 52.5 9.35346 52.5H61.6466C63.9581 52.5 66.1749 51.7098 67.8094 50.3033C69.4438 48.8968 70.3621 46.9891 70.3621 45V7.5C70.3621 5.51088 69.4438 3.60322 67.8094 2.1967C66.1749 0.790176 63.9581 0 61.6466 0H9.35346ZM61.6466 3.75C62.8023 3.75 63.9107 4.14509 64.728 4.84835C65.5452 5.55161 66.0043 6.50544 66.0043 7.5V31.875L49.5451 24.5737C49.1364 24.3976 48.6737 24.3365 48.2225 24.3991C47.7712 24.4617 47.3543 24.6448 47.0306 24.9225L30.8634 38.835L19.2717 32.19C18.8532 31.9502 18.3512 31.8424 17.8508 31.8848C17.3504 31.9271 16.8825 32.1171 16.5263 32.4225L4.9957 41.25V7.5C4.9957 6.50544 5.45482 5.55161 6.27206 4.84835C7.08929 4.14509 8.19771 3.75 9.35346 3.75H61.6466Z" fill="#3C3C3C"/>
</svg>
